<svg width="24" height="24" viewBox="0 0 24 24" fill="none" xmlns="http://www.w3.org/2000/svg">
<path fill-rule="evenodd" clip-rule="evenodd" d="M9.26489 3H22.4833L22.5 17.3041C22.492 18.9411 21.3432 20.4126 19.692 20.6439C16.7224 21.001 11.8713 20.6759 8.69704 20.6795C7.85673 20.6849 7.22118 20.6183 6.5873 20.0155C6.11535 19.5191 5.94132 18.9552 5.94464 18.2752L5.94954 15.142H9.26493V12.6447C8.10184 12.6447 6.87673 12.0787 5.99261 11.353C5.76388 11.172 5.80175 11.0771 5.80434 10.7953L5.8204 9.88933C5.18513 9.96606 4.80304 10.0037 4.58898 9.91836C4.10789 9.72651 1.59099 6.97368 1.12012 6.47175C1.05365 6.40087 0.977936 6.33831 1.00601 6.22598C1.46145 5.15032 3.76084 4.37484 4.89706 4.10272C6.26212 3.77582 7.94638 4.02912 9.26495 4.50698V3H9.26489ZM11.5038 5.19589H20.2874L20.3041 17.0959C20.2995 17.8802 20.0566 18.4799 19.2123 18.4673C17.9376 18.435 18.0915 16.1016 18.0915 15.142H11.5038V12.2572C12.2953 11.8615 12.7102 11.6192 13.3553 10.9655L15.926 13.4866C16.6208 14.168 17.2259 14.1346 18.0915 14.0225C18.1879 13.3899 18.2544 12.6799 17.8689 12.1319L11.5039 5.92783V5.19587L11.5038 5.19589ZM10.5998 8.03339C8.9287 6.44748 6.94238 5.57084 4.39948 6.53064C4.47722 6.71266 5.3627 7.62977 5.5391 7.71128C5.80469 7.834 7.54312 7.71054 8.01623 7.69319V10.0613C9.19955 10.6538 11.2182 10.5951 11.8483 9.28628L10.5998 8.03337L10.5998 8.03339Z" fill="white"/>
</svg>
